<mxfile host="app.diagrams.net" modified="2024-04-27T12:31:13.295Z" agent="Mozilla/5.0 (Macintosh; Intel Mac OS X 10_15_7) AppleWebKit/605.1.15 (KHTML, like Gecko) Version/17.4.1 Safari/605.1.15" version="24.3.0" etag="_Edg1tOfkP_0NtRJ1yNW" type="github">
  <diagram name="Page-1" id="3VYbJmwqDZBETqcIFygg">
    <mxGraphModel>
      <root>
        <mxCell id="0" />
        <mxCell id="1" parent="0" />
      </root>
    </mxGraphModel>
  </diagram>
</mxfile>
